<?xml version="1.0" encoding="UTF-8" standalone="no"?>
<svg width="294px" height="69px" viewBox="0 0 294 69" version="1.1" xmlns="http://www.w3.org/2000/svg" xmlns:xlink="http://www.w3.org/1999/xlink" xmlns:sketch="http://www.bohemiancoding.com/sketch/ns">
    <!-- Generator: Sketch 3.3.3 (12081) - http://www.bohemiancoding.com/sketch -->
    <title>brand-1</title>
    <desc>Created with Sketch.</desc>
    <defs></defs>
    <g id="Page-1" stroke="none" stroke-width="1" fill="none" fill-rule="evenodd" sketch:type="MSPage">
        <g id="brand-1" sketch:type="MSLayerGroup" transform="translate(0.000000, -1.000000)" fill="#1A1918">
            <path d="M0.84,63.1316667 L3.16,63.1316667 C10.3416667,63.1316667 10.9966667,59.5733333 10.9966667,51.9566667 L10.9966667,1.31166667 L18.32,8.59166667 L18.32,53.99 C18.32,62.0416667 15.565,68.425 8.095,69.9483333 L0.84,63.1316667" id="Fill-1" sketch:type="MSShapeGroup"></path>
            <path d="M41.27,26.5016667 C47.505,26.5016667 52.0033333,30.9266667 52.0033333,37.0216667 C52.0033333,43.8383333 47.87,48.0433333 41.27,48.0433333 C35.2483333,48.0433333 31.115,43.62 31.115,36.9466667 C31.115,30.9266667 35.3933333,26.5016667 41.27,26.5016667 L41.27,26.5016667 Z M41.34,54.2083333 C51.7866667,54.2083333 58.9666667,47.2466667 58.9666667,36.9466667 C58.9666667,27.3 51.5683333,20.3383333 41.34,20.3383333 C31.6233333,20.3383333 24.1516667,27.5883333 24.1516667,36.9466667 C24.1516667,46.9566667 31.3316667,54.2083333 41.34,54.2083333 L41.34,54.2083333 Z" id="Fill-2" sketch:type="MSShapeGroup"></path>
            <path d="M85.4283333,33.32 C85.4283333,28.6766667 83.105,25.7033333 79.4066667,25.7033333 C76.7233333,25.7033333 74.5483333,26.9383333 71.6466667,30.275 L71.6466667,53.555 L64.83,53.555 L64.83,5.32 L71.6466667,5.32 L71.6466667,24.835 C74.04,21.9316667 77.595,20.19 81.0766667,20.19 C87.5316667,20.19 92.2466667,24.6166667 92.2466667,33.5366667 L92.2466667,53.555 L85.4283333,53.555 L85.4283333,33.32" id="Fill-3" sketch:type="MSShapeGroup"></path>
            <path d="M120.735,33.465 C120.735,28.75 118.413333,25.8483333 114.713333,25.8483333 C112.03,25.8483333 109.855,27.0816667 106.953333,30.3466667 L106.953333,53.555 L100.136667,53.555 L100.136667,20.8883333 L106.953333,20.8883333 L106.953333,24.98 C109.346667,22.0783333 112.9,20.3383333 116.385,20.3383333 C122.62,20.3383333 127.55,24.6166667 127.55,33.5366667 L127.55,53.555 L120.735,53.555 L120.735,33.465" id="Fill-4" sketch:type="MSShapeGroup"></path>
            <path d="M147.8,1.31166667 L154.361667,8.015 L154.361667,46.81 L169.055,46.81 L175.433333,53.555 L147.8,53.555 L147.8,1.31166667" id="Fill-5" sketch:type="MSShapeGroup"></path>
            <path d="M187.433333,26.285 C191.711667,26.285 194.396667,29.1866667 194.686667,33.2866667 L179.02,33.2866667 C179.965,28.9666667 182.791667,26.285 187.433333,26.285 L187.433333,26.285 Z M200.815,50.1816667 C199.728333,49.2416667 196.571667,46.0833333 196.571667,46.0833333 C194.106667,47.175 191.786667,47.6816667 189.391667,47.6816667 C183.443333,47.6816667 179.891667,44.5633333 178.875,38.8733333 L201.431667,38.8733333 C201.431667,26.285 195.918333,20.3383333 187.288333,20.3383333 C178.295,20.3383333 172.056667,27.01 172.056667,36.875 C172.056667,45.87 177.713333,54.2083333 187.87,54.2083333 C193.308333,54.2083333 196.845,52.9916667 200.815,50.1816667 L200.815,50.1816667 Z" id="Fill-6" sketch:type="MSShapeGroup"></path>
            <path d="M238.62,54.2083333 L228.966667,30.9333333 L219.388333,54.2083333 L217.355,54.2083333 L202.72,20.86 L209.991667,20.86 L218.39,40.4133333 L226.426667,20.86 L231.503333,20.86 L239.58,40.4133333 L247.933333,20.84 L255.168333,20.84 L240.651667,54.2083333 L238.62,54.2083333" id="Fill-7" sketch:type="MSShapeGroup"></path>
            <path d="M258.493333,9.01 C258.493333,6.83333333 260.233333,5.02 262.336667,5.02 C264.44,5.02 266.181667,6.83333333 266.181667,9.01 C266.181667,11.2566667 264.44,13.0716667 262.336667,13.0716667 C260.233333,13.0716667 258.493333,11.2566667 258.493333,9.01 L258.493333,9.01 Z M259.073333,20.8433333 L265.898333,20.8433333 L265.898333,53.555 L259.073333,53.555 L259.073333,20.8433333 Z" id="Fill-8" sketch:type="MSShapeGroup"></path>
            <path d="M271.705,51.1616667 L271.705,43.7633333 C276.13,46.8816667 280.048333,48.2 282.518333,48.2 C284.891667,48.2 286.733333,47.2783333 286.818333,45.1466667 C286.861667,44.0266667 285.99,42.8216667 284.615,41.8783333 C283.235,40.8633333 281.35,39.9183333 279.465,38.76 C275.765,36.585 271.92,33.755 271.92,29.26 C271.92,23.675 275.871667,20.3383333 282.656667,20.3383333 C285.7,20.3383333 288.748333,21.2066667 292.228333,23.0933333 L292.228333,29.91 C288.385,27.3 284.78,26.2683333 282.461667,26.2683333 C279.925,26.2683333 278.738333,27.3883333 278.813333,29.0416667 C278.886667,30.7 280.805,31.985 286.65,35.2983333 C292.148333,38.415 293.753333,41.1516667 293.753333,44.5633333 C293.753333,50.365 289.183333,54.2083333 283.02,54.2083333 C279.028333,54.2083333 275.983333,53.4116667 271.705,51.1616667" id="Fill-9" sketch:type="MSShapeGroup"></path>
        </g>
    </g>
</svg>