<?xml version="1.0" encoding="UTF-8" standalone="no"?>
<svg width="303px" height="60px" viewBox="0 0 303 60" version="1.1" xmlns="http://www.w3.org/2000/svg" xmlns:xlink="http://www.w3.org/1999/xlink" xmlns:sketch="http://www.bohemiancoding.com/sketch/ns">
    <!-- Generator: Sketch 3.3.3 (12081) - http://www.bohemiancoding.com/sketch -->
    <title>brand-3</title>
    <desc>Created with Sketch.</desc>
    <defs></defs>
    <g id="Page-1" stroke="none" stroke-width="1" fill="none" fill-rule="evenodd" sketch:type="MSPage">
        <g id="brand-3" sketch:type="MSLayerGroup">
            <path d="M122.041514,46.4924138 C110.64527,54.9151724 94.1221295,59.3951724 79.8949023,59.3951724 C59.9540591,59.3951724 41.9978659,52.0137931 28.4090045,39.7255172 C27.3423068,38.7606897 28.2940023,37.442069 29.5762432,38.1896552 C44.2366227,46.7337931 62.3656636,51.8793103 81.0917523,51.8793103 C93.7234091,51.8793103 107.609073,49.2537931 120.384655,43.8268966 C122.312148,43.0075862 123.927689,45.0986207 122.041514,46.4924138" id="Fill-1" fill="#FF9900" sketch:type="MSShapeGroup"></path>
            <path d="M126.784152,41.0710345 C125.326309,39.2013793 117.148064,40.1848276 113.474189,40.6248276 C112.362041,40.7586207 112.189193,39.7862069 113.192536,39.08 C119.715989,34.4910345 130.405002,35.8165517 131.647302,37.3517241 C132.899243,38.902069 131.319511,49.6351724 125.205109,54.7572414 C124.26512,55.5455172 123.370582,55.1255172 123.787895,54.0841379 C125.163102,50.6441379 128.243373,42.9406897 126.784152,41.0710345" id="Fill-2" fill="#FF9900" sketch:type="MSShapeGroup"></path>
            <path d="M113.733805,6.66275862 L113.733805,2.20413793 C113.736559,1.52551724 114.246839,1.07310345 114.86248,1.07448276 L134.817095,1.07241379 C135.455461,1.07241379 135.967118,1.53724138 135.968495,2.19862069 L135.967118,6.02275862 C135.962986,6.66413793 135.423095,7.50137931 134.465202,8.82965517 L124.12877,23.6096552 C127.965852,23.5193103 132.024675,24.0944828 135.510552,26.0572414 C136.296975,26.4993103 136.507009,27.1551724 136.568986,27.797931 L136.568986,32.5551724 C136.568986,33.2110345 135.852805,33.9696552 135.100814,33.5751724 C128.958177,30.3531034 120.807477,30 114.015457,33.6137931 C113.322,33.9841379 112.595489,33.2365517 112.595489,32.5806897 L112.595489,28.057931 C112.595489,27.3344828 112.608573,26.0965517 113.337839,24.9931034 L125.313914,7.78758621 L114.886582,7.78551724 C114.248905,7.78551724 113.737936,7.33034483 113.733805,6.66275862" id="Fill-3" fill="#000000" sketch:type="MSShapeGroup"></path>
            <path d="M40.9421864,34.5124138 L34.8718568,34.5124138 C34.2940909,34.4744828 33.8320159,34.0393103 33.7858773,33.4848276 L33.7893205,2.28 C33.7893205,1.65586207 34.3140614,1.15655172 34.9613795,1.15655172 L40.6150841,1.15517241 C41.2066227,1.18551724 41.6810932,1.6337931 41.7189682,2.20275862 L41.7189682,6.27724138 L41.8325932,6.27724138 C43.306275,2.33724138 46.0828568,0.49862069 49.8228409,0.49862069 C53.6192932,0.49862069 55.9992205,2.33724138 57.7001523,6.27724138 C59.1731455,2.33724138 62.516475,0.49862069 66.0870545,0.49862069 C68.637075,0.49862069 71.4136568,1.54896552 73.1139,3.91310345 C75.0407045,6.53931034 74.6447386,10.3482759 74.6447386,13.6972414 L74.6399182,33.3889655 C74.6399182,34.0124138 74.1151773,34.5124138 73.4692364,34.5124138 L67.4051045,34.5124138 C66.7956614,34.4731034 66.3149932,33.9896552 66.3149932,33.3917241 L66.3136159,16.8489655 C66.3136159,15.5358621 66.4272409,12.2524138 66.1435227,11.0048276 C65.6904,8.90344828 64.3303432,8.31241379 62.5736318,8.31241379 C61.1006386,8.31241379 59.5698,9.29724138 58.9465841,10.8737931 C58.3226795,12.4496552 58.3798364,15.0758621 58.3798364,16.8489655 L58.3798364,33.3889655 C58.3798364,34.0124138 57.8557841,34.5124138 57.2091545,34.5124138 L51.1457114,34.5124138 C50.5362682,34.4731034 50.0556,33.9896552 50.0556,33.3917241 L50.0494023,16.8489655 C50.0494023,13.3689655 50.61615,8.24689655 46.3094182,8.24689655 C41.9455295,8.24689655 42.1156227,13.2372414 42.1156227,16.8489655 L42.1128682,33.3889655 C42.1135568,34.0124138 41.5895045,34.5124138 40.9421864,34.5124138" id="Fill-4" fill="#000000" sketch:type="MSShapeGroup"></path>
            <path d="M153.147218,0.49862069 C162.158025,0.49862069 167.030816,8.24689655 167.030816,18.0965517 C167.030816,27.6172414 161.647745,35.1696552 153.147218,35.1696552 C144.306505,35.1696552 139.489493,27.4206897 139.489493,17.7682759 C139.489493,8.04965517 144.362973,0.49862069 153.147218,0.49862069 L153.147218,0.49862069 Z M153.203686,6.86827586 C148.726173,6.86827586 148.442455,12.9744828 148.442455,16.7827586 C148.442455,20.5917241 148.385986,28.7344828 153.147218,28.7344828 C157.851293,28.7344828 158.077166,22.1675862 158.077166,18.162069 C158.077166,15.5358621 157.96423,12.3841379 157.170232,9.88827586 C156.489859,7.72137931 155.129802,6.86827586 153.203686,6.86827586 L153.203686,6.86827586 Z" id="Fill-5" fill="#000000" sketch:type="MSShapeGroup"></path>
            <path d="M178.716286,34.5124138 L172.667305,34.5124138 C172.059239,34.4731034 171.577882,33.9896552 171.577882,33.3917241 L171.56893,2.17517241 C171.619889,1.60482759 172.122593,1.15655172 172.734791,1.15655172 L178.366459,1.15517241 C178.89602,1.18206897 179.333305,1.54482759 179.444864,2.02896552 L179.444864,6.80206897 L179.559177,6.80206897 C181.25942,2.5337931 183.638659,0.49862069 187.832455,0.49862069 C190.55188,0.49862069 193.216214,1.48344828 194.916457,4.17586207 C196.503764,6.67103448 196.503764,10.8737931 196.503764,13.8944828 L196.503764,33.5289655 C196.4349,34.0827586 195.93977,34.5124138 195.339968,34.5124138 L189.2538,34.5124138 C188.691873,34.4758621 188.23875,34.0627586 188.172641,33.5289655 L188.172641,16.5862069 C188.172641,13.1717241 188.569295,8.18137931 184.3755,8.18137931 C182.901818,8.18137931 181.541761,9.1662069 180.862766,10.6765517 C180.0123,12.5806897 179.897986,14.4848276 179.897986,16.5862069 L179.897986,33.3889655 C179.887657,34.0124138 179.362916,34.5124138 178.716286,34.5124138" id="Fill-6" fill="#000000" sketch:type="MSShapeGroup"></path>
            <path d="M200.30848,32.0365517 C200.30848,30.4662069 201.6465,29.1937931 203.297161,29.1937931 C204.947134,29.1937931 206.284466,30.4662069 206.284466,32.0365517 C206.284466,33.6055172 204.947134,34.8786207 203.297161,34.8786207 C201.6465,34.8786207 200.30848,33.6055172 200.30848,32.0365517" id="Fill-7" fill="#000000" sketch:type="MSShapeGroup"></path>
            <path d="M264.628493,34.5206897 C263.99908,34.5013793 263.496375,34.0103448 263.496375,33.3986207 L263.496375,2.18965517 C263.53907,1.63931034 264.003211,1.20068966 264.583043,1.16344828 L266.81147,1.16275862 C267.425045,1.16275862 267.92775,1.61172414 267.97802,2.19034483 L267.97802,6.74068966 C269.561884,3.13517241 272.514757,0.310344828 276.246477,0.310344828 L276.480614,0.313793103 L276.705109,0.310344828 C280.66408,0.310344828 283.561173,3.23517241 284.636823,7.48482759 C286.313652,3.28965517 289.474493,0.310344828 293.642809,0.310344828 L293.85973,0.313793103 L294.102818,0.310344828 C297.048116,0.310344828 299.882543,2.21448276 301.356225,5.10344828 C302.77275,7.86137931 302.716282,11.5386207 302.716282,14.6248276 L302.714905,33.4 C302.716282,33.997931 302.234925,34.4813793 301.625482,34.5206897 L298.958393,34.5206897 C298.38407,34.5027586 297.913043,34.0910345 297.836605,33.5517241 L297.836605,14.6248276 C297.836605,12.3924138 297.949541,10.0282759 297.043295,7.99241379 C296.116391,5.90896552 294.351416,4.61448276 292.454223,4.51862069 C290.333911,4.62413793 288.389202,6.16482759 287.131752,8.25517241 C285.487977,10.9475862 285.545823,13.3772414 285.545823,16.5289655 L285.545823,33.5627586 C285.470761,34.08 285.02177,34.4841379 284.466041,34.5206897 L281.812036,34.5206897 C281.182623,34.5013793 280.678541,34.0103448 280.678541,33.3986207 L280.666145,13.3772414 C280.666145,11.5386207 280.553209,9.37172414 279.703432,7.73034483 C278.724191,5.84068966 276.964725,4.61586207 275.122623,4.51862069 C273.210968,4.62551724 271.277277,6.08896552 270.131386,7.79586207 C268.658393,9.96275862 268.374675,12.6551724 268.374675,15.4131034 L268.373298,33.4 C268.373298,33.997931 267.891941,34.4813793 267.283875,34.5206897 L264.628493,34.5206897" id="Fill-8" fill="#000000" sketch:type="MSShapeGroup"></path>
            <path d="M246.33418,35.177931 C237.720716,35.177931 233.867107,26.3786207 233.867107,17.58 C233.867107,8.32068966 238.401089,0.310344828 247.07102,0.310344828 L247.294139,0.312413793 L247.529652,0.310344828 C255.973711,0.310344828 260.167507,8.8462069 260.167507,17.6448276 C260.167507,26.9696552 255.520589,35.177931 246.792811,35.177931 L246.569693,35.1751724 L246.33418,35.177931 L246.33418,35.177931 Z M246.969102,30.9055172 C249.802841,30.8124138 252.038155,29.0544828 253.361714,26.1158621 C254.550989,23.4896552 254.778239,20.4689655 254.778239,17.58 C254.778239,14.4275862 254.438052,11.1448276 252.965059,8.45241379 C251.645632,6.09724138 249.369689,4.6062069 246.959461,4.51655172 C244.276534,4.61517241 241.8849,6.43172414 240.6729,9.24 C239.59725,11.6696552 239.256375,14.8875862 239.256375,17.58 C239.256375,20.6 239.653718,24.0806897 240.90015,26.7068966 C242.110773,29.1958621 244.447316,30.8165517 246.969102,30.9055172 L246.969102,30.9055172 Z" id="Fill-9" fill="#000000" sketch:type="MSShapeGroup"></path>
            <path d="M219.416761,30.7744828 C223.283455,30.6531034 225.312866,27.5496552 226.156445,23.5262069 C226.320341,23.0248276 226.705289,22.6386207 227.268593,22.6386207 L229.826877,22.6275862 C230.429434,22.6593103 230.983786,23.1213793 230.937648,23.6848276 C229.757325,30.5282759 225.631705,35.177931 219.752816,35.177931 L219.516614,35.1751724 L219.294184,35.177931 C210.737877,35.177931 207.053673,26.5758621 207.053673,17.8427586 C207.053673,9.17448276 210.793657,0.310344828 219.350652,0.310344828 L219.576525,0.312413793 L219.809284,0.310344828 C225.747395,0.310344828 229.985952,4.89310345 230.90597,11.7406897 C230.90597,12.2544828 230.429434,12.6993103 229.871639,12.7641379 L227.190777,12.7324138 C226.634359,12.6531034 226.26525,12.1682759 226.181925,11.6303448 C225.536673,7.80758621 223.344055,4.76827586 219.690839,4.64758621 C213.87255,4.8337931 212.217068,12.0055172 212.217068,17.5137931 C212.217068,22.8310345 213.598473,30.582069 219.416761,30.7744828" id="Fill-10" fill="#000000" sketch:type="MSShapeGroup"></path>
            <path d="M97.8263045,19.6103448 C97.8263045,21.98 97.8827727,23.9537931 96.6900545,26.06 C95.7245864,27.7710345 94.1909932,28.8234483 92.4873068,28.8234483 C90.1590273,28.8234483 88.7955273,27.0462069 88.7955273,24.4144828 C88.7955273,19.2365517 93.4341818,18.2944828 97.8263045,18.2944828 L97.8263045,19.6103448 L97.8263045,19.6103448 Z M103.946216,34.4344828 C103.544052,34.7951724 102.965598,34.8193103 102.511786,34.5758621 C100.496148,32.8972414 100.134614,32.1213793 99.0327955,30.5241379 C95.6997955,33.9241379 93.33915,34.9434483 89.0227773,34.9434483 C83.9124068,34.9434483 79.9362205,31.7848276 79.9362205,25.4675862 C79.9362205,20.5317241 82.605375,17.1758621 86.4107795,15.5303448 C89.7045273,14.082069 94.3046182,13.8193103 97.8263045,13.4241379 L97.8263045,12.6344828 C97.8263045,11.1868966 97.9399295,9.47586207 97.0873977,8.22551724 C96.3491795,7.10689655 94.9299,6.6462069 93.680025,6.6462069 C91.3648295,6.6462069 89.3064955,7.83448276 88.8003477,10.2972414 C88.695675,10.8448276 88.2962659,11.3868966 87.7460455,11.4144828 L81.8616477,10.7772414 C81.3644523,10.6648276 80.8128545,10.2655172 80.9560909,9.5062069 C82.3078841,2.35655172 88.7548977,0.196551724 94.5318682,0.196551724 C97.4854295,0.196551724 101.347302,0.986206897 103.675582,3.22413793 C106.629143,5.98827586 106.344736,9.67310345 106.344736,13.6875862 L106.344736,23.16 C106.344736,26.0089655 107.527125,27.2593103 108.636518,28.7944828 C109.023532,29.3475862 109.110989,30.0055172 108.616548,30.4096552 C107.376314,31.4503448 105.173366,33.3675862 103.960677,34.4475862 L103.946216,34.4344828 L103.946216,34.4344828 Z" id="Fill-11" fill="#000000" sketch:type="MSShapeGroup"></path>
            <path d="M18.2406,19.6103448 C18.2406,21.98 18.2977568,23.9537931 17.1050386,26.06 C16.1402591,27.7710345 14.6066659,28.8234483 12.9022909,28.8234483 C10.5747,28.8234483 9.2112,27.0462069 9.2112,24.4144828 C9.2112,19.2365517 13.8491659,18.2944828 18.2406,18.2944828 L18.2406,19.6103448 L18.2406,19.6103448 Z M24.3618886,34.4344828 C23.959725,34.7951724 23.3798932,34.8193103 22.9274591,34.5758621 C20.9104432,32.8972414 20.5495977,32.1213793 19.4470909,30.5241379 C16.1147795,33.9241379 13.7548227,34.9434483 9.43845,34.9434483 C4.32670227,34.9434483 0.351893182,31.7848276 0.351893182,25.4675862 C0.351893182,20.5317241 3.02104773,17.1758621 6.82576364,15.5303448 C10.1195114,14.082069 14.7202909,13.8193103 18.2406,13.4241379 L18.2406,12.6344828 C18.2406,11.1868966 18.354225,9.47586207 17.5030705,8.22551724 C16.7648523,7.10689655 15.3441955,6.6462069 14.0956977,6.6462069 C11.7798136,6.6462069 9.72079091,7.83448276 9.21602045,10.2972414 C9.11065909,10.8448276 8.71125,11.3868966 8.16102955,11.4144828 L2.27732045,10.7772414 C1.780125,10.6648276 1.22715,10.2655172 1.371075,9.5062069 C2.72286818,2.35655172 9.16919318,0.196551724 14.9468523,0.196551724 C17.9004136,0.196551724 21.7622864,0.986206897 24.0905659,3.22413793 C27.0441273,5.98827586 26.7597205,9.67310345 26.7597205,13.6875862 L26.7597205,23.16 C26.7597205,26.0089655 27.9414205,27.2593103 29.0515023,28.7944828 C29.4385159,29.3475862 29.5259727,30.0055172 29.0315318,30.4096552 C27.7912977,31.4503448 25.5876614,33.3675862 24.37635,34.4475862 L24.3618886,34.4344828 L24.3618886,34.4344828 Z" id="Fill-12" fill="#000000" sketch:type="MSShapeGroup"></path>
        </g>
    </g>
</svg>