<?xml version="1.0" encoding="UTF-8" standalone="no"?>
<svg width="146px" height="64px" viewBox="0 0 146 64" version="1.1" xmlns="http://www.w3.org/2000/svg" xmlns:xlink="http://www.w3.org/1999/xlink" xmlns:sketch="http://www.bohemiancoding.com/sketch/ns">
    <!-- Generator: Sketch 3.4 (15588) - http://www.bohemiancoding.com/sketch -->
    <title>brand-2</title>
    <desc>Created with Sketch.</desc>
    <defs></defs>
    <g id="Page-1" stroke="none" stroke-width="1" fill="none" fill-rule="evenodd" sketch:type="MSPage">
        <g id="brand-2" sketch:type="MSLayerGroup" fill="#1A1918">
            <g id="Page-1" sketch:type="MSShapeGroup">
                <path d="M19.7424433,63.671742 L21.9090775,63.671742 C24.0777697,63.671742 24.3597254,62.6203871 24.3597254,60.1016774 C24.3597254,60.1016774 24.3437754,40.5785807 24.3437754,39.259871 C24.3437754,37.9390968 24.6051504,37.668129 25.92849,37.4895484 C27.2585184,37.3099355 31.0999078,36.9207742 32.0599979,36.9207742 C32.8400068,36.9207742 33.4548554,37.1107097 33.3591552,38.631742 L33.3591552,60.4619355 C33.3591552,62.9832258 33.6534593,63.4632258 34.7354901,63.4632258 L36.7523996,63.4632258 C38.1693815,63.4632258 38.4734615,62.1021935 38.4734615,60.4619355 C38.4734615,59.0219355 38.4575114,39.8301935 38.4575114,38.2704516 C38.4575114,36.9047742 38.6458249,36.4887742 40.2506057,36.3076129 C40.7738702,36.2456774 43.2384102,36.0670968 44.3466814,36.0670968 C46.9208136,36.0670968 47.6231303,36.7654193 46.5740287,38.404129 C45.8562764,39.5246452 43.4941255,45.3063226 43.4941255,48.4691613 C43.4941255,50.0258065 44.3595444,53.0234838 46.5148592,53.0234838 C48.6686304,53.0234838 50.7678628,49.8343226 52.1359654,47.552 C53.300319,45.6030968 53.8961305,45.6392258 54.5248713,47.8652903 C54.9014982,49.1850323 55.2457106,52.0258065 56.8067574,52.88 C57.3243622,53.163871 58.1434745,53.255742 58.8210943,52.872258 C61.9473041,51.115871 64.9402536,44.0541935 66.1853869,38.6750968 C66.9160021,35.5210323 69.3944337,35.9344516 69.237506,38.631742 L69.237506,48.1218065 C69.237506,49.6185807 69.9079227,52.0046452 71.6629422,52.9027097 C72.4655903,53.312 73.7323328,53.1778065 74.5679099,52.8381935 C78.0481075,51.4167742 81.0179037,40.0500645 81.5535171,38.1646452 C82.213643,35.8307097 84.5408072,36.388129 84.4214385,38.5104516 L84.4214385,48.059871 C84.4214385,50.1899355 85.333679,52.3169032 86.5865292,52.9104516 C87.6073325,53.3909677 88.8920834,53.3192258 89.8398249,52.8268387 C91.0612902,52.200258 92.1078195,50.472258 92.9114959,49.1850323 C93.9050298,47.6005162 94.5574381,47.6123871 95.7840485,49.4270968 C96.4549797,50.4216774 98.2979823,53.188129 102.123936,53.188129 C107.541808,53.188129 109.968274,47.4668387 109.968274,43.924129 C109.968274,42.2472258 110.160703,41.095742 111.000396,40.6539355 C111.882794,40.1899355 113.238034,39.5432258 113.960417,39.5432258 C115.107277,39.5432258 114.495515,41.0699355 114.379748,41.5246452 C114.154389,42.407742 113.482429,45.1669677 113.482429,47.0405162 C113.482429,50.1223226 114.597904,53.1308387 117.189015,53.1308387 C119.758517,53.1308387 121.912288,49.7708387 122.63004,48.615742 C123.486713,47.2376774 124.246655,47.2665807 124.394321,48.6910968 C124.514719,49.8327742 124.486421,50.2214193 124.486421,50.2214193 C124.486421,52.2203871 125.082232,53.1143226 126.144196,53.1143226 L127.430491,53.1143226 C128.475477,53.1143226 129.628511,52.1656774 129.628511,49.7264516 L129.628511,11.9989677 C129.628511,10.0789677 129.250854,9.71922579 127.937291,9.71922579 L126.877899,9.71922579 C125.560219,9.71922579 124.842467,10.32 124.842467,11.9989677 L124.842467,31.9107097 C124.842467,32.8712258 124.500827,33.3367742 123.78256,33.3367742 C122.48083,33.3367742 122.002329,33.4647742 121.258851,33.8307097 C118.3261,35.2707097 114.938,36.9470968 112.690072,37.6810323 C110.484849,38.4025807 109.925054,38.5780645 109.297342,37.5901935 C107.91792,35.4100645 106.416043,33.111742 102.362672,33.111742 C99.6460188,33.111742 97.5400976,34.443871 96.0629168,36.4330323 C94.496725,38.539871 94.1576576,40.8686452 93.4687186,42.9352258 C91.9452316,47.5143226 89.4462191,50.4779355 89.4462191,46.9068387 L89.4333558,42.8872258 L89.5352306,39.1545807 C89.5352306,36.5290323 86.6498148,35.6753548 84.9318404,35.1509677 C82.8485581,34.516129 82.6875138,33.352258 82.6875138,31.2975484 C82.6875138,29.2180645 82.4492921,27.5329032 80.6561979,27.5329032 C79.738813,27.5329032 77.413193,28.2183226 77.413193,31.2975484 C77.413193,33.575742 79.7002243,34.5218065 79.7002243,36.5465807 C79.7002243,37.9101935 78.2014336,42.6152258 77.2325967,44.8975484 C76.5925372,46.4129032 75.6530278,48.3323871 75.0618464,48.3323871 C74.4974206,48.3323871 74.3497541,47.7099355 74.3497541,46.4572903 L74.3497541,38.6126452 C74.3497541,36.1409032 71.0568407,35.3011613 69.237506,34.6699355 C67.6131732,34.1099355 67.5781861,33.0900645 67.5781861,31.0136774 C67.5781861,27.8539355 66.4647697,27.2190968 65.3492952,27.2190968 C63.9143052,27.2190968 62.2987197,28.2632258 62.2987197,30.8624516 C62.2987197,33.575742 64.557967,34.0407742 64.557967,36.3504516 C64.557967,37.8049032 62.3460554,44.6859355 60.9990479,46.8934193 C60.030211,48.4763871 59.5506804,48.4025807 59.0706354,46.9811613 C58.5041514,45.3109677 58.0472597,39.9421935 57.606318,38.7654193 C57.1725795,37.6103226 55.4407128,37.6103226 54.7630929,38.7483871 C53.8374755,40.3096774 50.9237616,46.1414193 48.9799136,48.528 C48.8255583,48.7138065 47.4132071,50.4505807 47.4132071,48.647742 C47.4132071,46.4067097 50.5208943,41.6588387 53.0168198,39.0812903 C54.983821,37.047742 57.3948511,36.5899355 57.3948511,34.7447742 C57.3948511,32.7850323 54.9452322,32.8712258 53.1521379,32.8712258 C47.8438585,32.8712258 41.999966,33.2614193 40.0581761,33.352258 C38.5398342,33.4229677 38.5012454,33.2113548 38.5012454,31.492129 L38.5012454,2.0407742 C38.5012454,0.858322579 37.9080065,0 36.6494961,0 C36.6320025,0 36.007378,0.0015483871 36.007378,0.0015483871 C34.0326588,0.0015483871 33.3591552,0.662709677 33.3591552,3.60051613 L33.3591552,31.7914838 C33.3591552,33.431742 33.0252332,33.9339355 31.6998355,34.1011613 L25.9444401,34.6699355 C24.7492154,34.7752258 24.5099646,34.5058065 24.5099646,32.391742 L24.5099646,3.60051613 C24.5099646,-0.0289032258 22.7070945,0.0015483871 21.7917675,0.0015483871 L20.1319332,0.0015483871 C19.2531369,0.0015483871 17.3345003,0.881548384 17.3345003,3.60051613 L17.3345003,33.352258 C17.3345003,35.3310968 17.1760288,35.6206452 15.4210088,35.8709677 C13.7462536,36.1083871 4.74785293,37.1901935 1.72660479,37.5499355 C0.607014195,37.6830968 0.172246708,37.7976774 0.0250946359,38.3034838 C-0.0212119603,38.4645162 0.00811555058,39.064258 0.0220075294,39.2154838 C0.0657415367,39.8054193 0.71660647,40.1424516 1.47294754,40.0541935 C3.03090725,39.8745807 14.2875263,38.5104516 14.2875263,38.5104516 C16.6080012,38.2110968 17.2141032,38.2818065 17.2141032,40.1150968 L17.2141032,60.5827097 C17.2141032,62.4216774 18.1062769,63.671742 19.7424433,63.671742 L19.7424433,63.671742 L19.7424433,63.671742 Z M102.196998,37.4451613 C102.196998,36.1636129 103.22912,35.7058065 104.185608,35.7058065 C105.301083,35.7058065 106.905864,37.0549677 106.905864,38.2544516 C106.905864,38.9341935 106.362019,39.7698065 105.127691,39.7698065 C104.049262,39.7698065 102.196998,38.8851613 102.196998,37.4451613 L102.196998,37.4451613 L102.196998,37.4451613 Z M100.688431,40.1899355 C102.111073,40.3685162 102.001995,41.1489032 103.558411,41.6283871 C105.112769,42.1094193 106.069258,41.8673548 106.905864,41.8673548 C107.744528,41.8673548 107.771283,42.2270968 107.771283,43.7889032 C107.771283,45.787871 106.930046,50.7153548 103.181784,50.7153548 C99.5570073,50.7153548 99.2071352,46.1486452 99.2071352,44.1470968 C99.2071352,41.6283871 99.7319433,40.0691613 100.688431,40.1899355 L100.688431,40.1899355 L100.688431,40.1899355 Z M123.155363,37.6707097 C124.149926,37.6707097 123.884949,38.8289032 123.884949,39.227871 C123.884949,40.9491613 120.417614,50.1450323 118.264357,50.1450323 C117.784827,50.1450323 117.519336,49.8606452 117.519336,48.9027097 C117.519336,46.5821935 120.881709,37.6707097 123.155363,37.6707097 L123.155363,37.6707097 L123.155363,37.6707097 Z M134.124881,36.2725162 C132.137814,38.1507097 131.420061,39.659871 131.420061,41.7331613 C131.420061,44.9491613 134.232415,45.6469677 137.461014,46.907871 C139.857123,47.844129 141.704242,48.5703226 141.704242,50.7473548 C141.704242,55.1870968 133.961265,56.824258 132.207788,58.6415484 C131.407199,59.4766452 131.001244,60.2833548 131.001244,61.511742 C131.001244,62.1496774 131.038289,63.5664516 132.753692,63.5664516 C134.828227,63.5664516 139.137827,61.0307097 141.44441,59.3099355 C143.988701,57.4100645 145.352172,55.1535484 145.352172,52.155871 C145.352172,49.6541935 143.854926,47.5963871 142.230079,46.5940645 C140.768849,45.6908387 138.610961,45.2588387 137.067923,44.6296774 C134.207718,43.456 135.052042,41.9726452 136.292544,40.6374193 C140.092772,36.5610323 143.260658,37.7909677 144.971944,35.879742 C145.699987,35.0658065 145.847653,33.7703226 145.847653,33.3811613 C145.847653,32.0216774 144.858235,31.0869677 143.784437,31.0869677 C142.740995,31.0869677 137.493943,33.0864516 134.124881,36.2725162 L134.124881,36.2725162 L134.124881,36.2725162 Z" id="brand-2"></path>
            </g>
        </g>
    </g>
</svg>