<?xml version="1.0" encoding="UTF-8" standalone="no"?>
<svg width="94px" height="108px" viewBox="0 0 94 108" version="1.1" xmlns="http://www.w3.org/2000/svg" xmlns:xlink="http://www.w3.org/1999/xlink" xmlns:sketch="http://www.bohemiancoding.com/sketch/ns">
    <!-- Generator: Sketch 3.4 (15588) - http://www.bohemiancoding.com/sketch -->
    <title>rose-left</title>
    <desc>Created with Sketch.</desc>
    <defs></defs>
    <g id="Page-1" stroke="none" stroke-width="1" fill="none" fill-rule="evenodd" sketch:type="MSPage">
        <path d="M45.5715214,1.3 C46.3508376,2.976 46.3492308,5.5336 46.1138291,7.3336 C48.8269744,5.9208 49.4697094,3.2512 52.2077607,1.8544 C53.2104274,2.7696 51.561812,3.84 51.7482051,5.048 C54.5087521,3.9112 55.1008718,1.4592 57.3287521,0 C58.0494188,2.3688 57.2395726,5.8776 56.904547,8.4248 C57.7762564,8.4496 58.9637094,6.5392 59.6249231,5.6104 C64.6053162,14.2552 56.4337436,22.6664 46.1523932,22.7368 C44.3013162,26.5744 42.8270427,30.6416 42.7804444,35.5736 C44.6676752,34.6752 45.0661709,31.7168 47.5623932,29.7944 C48.4011624,29.1488 49.6432479,29.0352 50.6362735,28.4344 C52.4761026,27.3232 54.8727009,24.9096 58.5387009,25.2928 C60.6709744,25.5152 62.1846154,27.6392 64.7234188,27.8056 C64.3498291,28.956 63.0105299,28.6544 61.7997778,28.512 C59.1227863,32.0272 52.5909915,31.1456 49.9726496,29.5192 C45.639812,32.348 44.1245641,36.8856 41.5761197,40.796 C42.3192821,44.9104 40.7927863,48.6032 42.5884274,52.5736 C44.4065641,49.7064 46.3468205,44.7672 50.3213333,42.3824 C51.853453,49.6792 48.7570769,54.1672 44.1583077,57.7432 C45.8736068,62.9432 48.0870256,67.332 50.9994188,70.5768 C50.151812,66.2208 51.8301538,63.1376 53.0449231,59.9112 C54.341641,56.4616 54.9763419,51.988 58.2880342,50.9376 C61.8487863,53.128 59.1268034,59.2072 56.1726325,61.3128 C55.3475214,61.9 54.0901709,61.8936 53.3911966,62.6016 C51.5336923,64.48 51.8936239,70.676 52.9493162,73.496 C54.0186667,76.352 59.1099316,81.0552 61.5635726,83.4376 C64.7338632,86.5152 68.1556239,89.4944 71.2134359,91.2784 C68.9855556,85.24 70.1521197,76.8784 65.2825983,73.2912 C61.5788376,74.1448 57.4982735,68.28 58.201265,63.2888 C62.6457778,63.896 63.622735,70.1696 66.7440171,72.9384 C66.8854188,67.724 67.4887863,61.492 71.5082906,59.4576 C74.1941197,64.8696 72.0939829,71.2848 68.3396068,74.4024 C68.5436752,76.1024 69.4475214,76.6624 69.8460171,78.0456 C71.8666154,74.424 73.5554017,71.5552 76.0283248,70.3864 C82.9513846,67.1144 91.4603932,71.2424 92.3136239,78.7816 C92.718547,82.3552 90.8867521,87.6928 88.231453,88.708 C82.5689573,90.8696 75.1718803,82.5528 83.2430256,82.2064 C83.2615043,83.5408 80.9966667,83.4888 81.1083419,84.88 C82.2162564,87.064 85.5528547,88.1648 87.8771453,87.2504 C89.8230256,86.4872 91.5367179,81.8856 91.2169573,79.3544 C90.1813504,71.1792 79.3384103,68.2968 73.8848034,74.2952 C72.5655897,75.748 71.4319658,77.8216 71.148359,79.5808 C70.8904615,81.1848 71.7211966,82.7488 71.7702051,84.6704 C71.7983248,85.816 71.2905641,87.6152 72.0996068,89.8304 C75.4281709,98.9488 88.1101368,100.272 93.6497094,107.1256 C90.2126838,107.2152 88.216188,104.6808 85.5769573,103.2192 C81.7575043,101.1064 78.1284615,99.1072 74.0936923,96.7472 C71.3934017,95.1664 68.7364957,92.664 64.1883419,94.208 C60.8051453,95.3568 57.5762051,99.468 53.5840171,97.6944 C51.5320855,96.7824 48.8133162,93.8608 51.9434359,92.2344 C55.7500342,90.2552 59.9824444,92.1552 62.6642564,93.0344 C64.7941197,91.7424 66.8757778,92.9088 69.0867863,92.7152 C68.7806838,91.2704 67.0099487,90.2832 65.7542051,89.2056 C62.6602393,86.548 58.304906,82.188 52.8810256,83.3776 C50.3068718,83.9416 47.8524274,86.5408 44.8998632,87.4632 C41.0611282,88.6632 37.718906,88.5248 35.0644103,85.2152 C39.6615726,82.6056 45.856735,79.7736 50.1879658,82.4864 C53.0087692,80.7432 55.6777265,82.3616 58.2141197,82.396 C55.4117949,78.9712 52.521094,75.6912 49.8224103,72.0944 C45.5008205,75.0464 38.3680684,74.3176 35.823641,70.5448 C39.8230598,70.6736 43.5886838,68.176 47.0747179,68.4424 C44.0233333,62.3104 41.9722051,58.0744 38.3447692,54.2152 C33.4302564,48.9856 26.4220342,46.272 19.9946838,48.7848 C13.1150085,51.476 7.37699145,62.3448 14.5957094,69.8176 C16.1599658,71.4376 20.7860513,74.1656 25.6001368,71.7816 C30.3732479,69.4184 30.0462564,59.5392 22.9576923,63.4816 C22.2137265,64.8544 24.5733675,65.2904 23.3047692,66.172 C21.8915556,66.9112 21.2399829,65.272 21.125094,64.8488 C20.3088205,61.8656 26.2517094,60.0264 28.3004274,61.2656 C33.7966154,64.592 28.6627692,72.912 23.979641,74.0232 C18.4296239,75.3408 12.8908547,71.944 10.8919487,67.3216 C7.50473504,59.4848 11.2687521,51.548 19.0554872,47.4704 C15.2464786,44.7248 11.982188,49.8288 9.10916239,51.1072 C5.63517949,52.652 1.84384615,52.2096 0,49.3008 C2.01417094,48.2976 3.1702906,47.1152 4.90728205,46.5736 C7.75620513,45.6848 9.93909402,46.9848 12.7132991,46.8448 C15.2071111,46.72 17.5193504,45.0456 19.9416581,46.0232 C18.2938462,41.0952 10.1375385,41.116 12.0810085,32.8184 C15.7960171,33.9384 21.0270769,37.996 19.0112991,43.4744 C21.9767179,47.2728 28.8057778,46.072 33.2052991,48.3672 C36.3105128,49.9872 38.2009573,52.6504 41.1101368,55.3968 C41.8219658,53.976 40.7285128,52.9384 40.479453,51.5408 C39.940359,48.5176 40.8779487,46.2128 39.5209744,42.5264 C38.3777094,39.42 34.5799487,35.0832 32.2106667,34.12 C30.8520855,33.5688 29.4991282,34.2256 28.3470256,33.5128 C25.7543932,31.9056 25.5246154,27.1272 25.0578291,23.8264 C28.7029402,24.6184 32.088547,26.6424 33.4760513,30.4232 C33.8006325,31.3088 33.5628205,32.8184 33.9645299,33.6968 C35.3480171,36.7192 39.207641,38.236 40.335641,40.7888 C41.3905299,34.3992 42.3867692,27.976 44.8412137,22.436 C38.7705812,16.5248 39.4117094,4.9456 45.5715214,1.3 L45.5715214,1.3 Z M50.4362222,4.7488 C50.8186496,4.4664 50.3213333,4.4032 50.4362222,4.7488 C48.0042735,6.1648 48.1135385,9.1256 44.9279829,10.0864 C44.4628034,7.7376 45.4574359,6.2744 44.9697607,3.9112 C43.0977949,5.732 41.2547521,9.2144 41.5520171,12.7512 C41.908735,16.98 44.2956923,22.0888 48.0564957,21.6592 C52.0462735,21.2056 58.3796239,16.7736 59.4939658,13.9648 C60.0772479,12.492 59.8201538,10.4512 59.3855043,8.4424 C57.5922735,9.0944 56.5108718,11.488 54.4782222,11.1696 C55.2551282,8.8096 57.1897607,5.8984 55.920359,3.1144 C53.4353846,4.6664 52.6375897,7.2416 50.5527179,9.0352 C49.7878632,7.1648 50.7278632,6.3312 50.4362222,4.7488 L50.4362222,4.7488 Z M32.5826496,33.1056 C31.8113675,28.5312 29.3143419,26.776 26.4316752,25.6528 C26.3312479,30.0528 28.4868205,34.2096 32.5826496,33.1056 L32.5826496,33.1056 Z M18.2215385,41.5064 C18.5822735,37.3504 14.9331453,36.3288 12.8691624,34.7864 C12.8547009,38.3792 15.7301368,40.664 18.2215385,41.5064 L18.2215385,41.5064 Z M52.5331453,28.5936 C53.6257949,30.5144 58.8150769,29.9376 60.4885983,28.2112 C60.2170427,26.2056 54.4629573,26.7056 52.5331453,28.5936 L52.5331453,28.5936 Z M2.62235897,49.9 C4.86309402,50.2632 9.43615385,50.4992 10.152,47.7728 C8.21736752,46.7496 3.29401709,47.5944 2.62235897,49.9 L2.62235897,49.9 Z M43.8031966,56.2864 C47.7246838,53.7896 49.8015214,50.1696 49.4263248,45.0648 C45.5578632,47.5952 43.8771111,51.4536 43.8031966,56.2864 L43.8031966,56.2864 Z M54.2050598,60.8632 C57.0837094,59.0544 59.348547,56.8736 58.4214017,52.7552 C55.9067009,53.8128 54.1239145,57.4096 54.2050598,60.8632 L54.2050598,60.8632 Z M68.0640342,72.0032 C71.5966667,70.9064 72.0417607,65.828 71.3476068,61.3448 C68.1017949,62.6408 68.2166838,68.0144 68.0640342,72.0032 L68.0640342,72.0032 Z M63.6155043,71.536 C62.8177094,68.6352 61.5298291,66.5344 59.4248718,65.7672 C60.3552308,68.4512 60.9095897,71.752 63.6155043,71.536 L63.6155043,71.536 Z M38.8798462,71.656 C41.7617094,72.4408 46.574188,73.5392 49.2455556,71.0016 C47.2450427,68.4488 41.3792821,70.2272 38.8798462,71.656 L38.8798462,71.656 Z M37.9792137,85.7448 C40.5774701,87.6736 46.4697436,85.8344 48.9386496,83.7136 C46.2271111,81.1848 40.2946667,83.1896 37.9792137,85.7448 L37.9792137,85.7448 Z M52.4399487,94.2728 C53.6008889,97.6552 59.8201538,96.3576 61.2735385,93.68 C58.9331795,93.4344 54.2090769,91.4856 52.4399487,94.2728 L52.4399487,94.2728 Z" id="rose-left" fill="#BEC76A" sketch:type="MSShapeGroup"></path>
    </g>
</svg>