<?xml version="1.0" encoding="UTF-8" standalone="no"?>
<svg width="94px" height="108px" viewBox="0 0 94 108" version="1.1" xmlns="http://www.w3.org/2000/svg" xmlns:xlink="http://www.w3.org/1999/xlink" xmlns:sketch="http://www.bohemiancoding.com/sketch/ns">
    <!-- Generator: Sketch 3.4 (15588) - http://www.bohemiancoding.com/sketch -->
    <title>rose-right-green</title>
    <desc>Created with Sketch.</desc>
    <defs></defs>
    <g id="Page-1" stroke="none" stroke-width="1" fill="none" fill-rule="evenodd" sketch:type="MSPage">
        <g id="rose-right-green" sketch:type="MSLayerGroup" fill-opacity="0.8" fill="#A9A9D6">
            <g id="Page-1" sketch:type="MSShapeGroup">
                <path d="M45.921812,1.3 C46.7011282,2.976 46.6995214,5.5336 46.4641197,7.3336 C49.177265,5.9208 49.82,3.2512 52.5580513,1.8544 C53.560718,2.7696 51.9121026,3.84 52.0984957,5.048 C54.8590427,3.9112 55.4511624,1.4592 57.6790427,0 C58.3997094,2.3688 57.5898632,5.8776 57.2548376,8.4248 C58.126547,8.4496 59.314,6.5392 59.9752137,5.6104 C64.9556068,14.2552 56.7840342,22.6664 46.5026838,22.7368 C44.6516068,26.5744 43.1773333,30.6416 43.130735,35.5736 C45.0179658,34.6752 45.4164615,31.7168 47.9126838,29.7944 C48.751453,29.1488 49.9935385,29.0352 50.9865641,28.4344 C52.8263932,27.3232 55.2229915,24.9096 58.8889915,25.2928 C61.021265,25.5152 62.534906,27.6392 65.0737094,27.8056 C64.7001197,28.956 63.3608205,28.6544 62.1500684,28.512 C59.4730769,32.0272 52.9412821,31.1456 50.3229402,29.5192 C45.9901026,32.348 44.4748547,36.8856 41.9264103,40.796 C42.6695727,44.9104 41.1430769,48.6032 42.938718,52.5736 C44.7568547,49.7064 46.6971111,44.7672 50.6716239,42.3824 C52.2037436,49.6792 49.1073675,54.1672 44.5085983,57.7432 C46.2238974,62.9432 48.4373162,67.332 51.3497094,70.5768 C50.5021026,66.2208 52.1804444,63.1376 53.3952137,59.9112 C54.6919316,56.4616 55.3266325,51.988 58.6383248,50.9376 C62.1990769,53.128 59.477094,59.2072 56.5229231,61.3128 C55.697812,61.9 54.4404615,61.8936 53.7414872,62.6016 C51.8839829,64.48 52.2439145,70.676 53.2996068,73.496 C54.3689573,76.352 59.4602222,81.0552 61.9138632,83.4376 C65.0841538,86.5152 68.5059145,89.4944 71.5637265,91.2784 C69.3358462,85.24 70.5024103,76.8784 65.6328889,73.2912 C61.9291282,74.1448 57.8485641,68.28 58.5515556,63.2888 C62.9960684,63.896 63.9730256,70.1696 67.0943077,72.9384 C67.2357094,67.724 67.8390769,61.492 71.8585812,59.4576 C74.5444103,64.8696 72.4442735,71.2848 68.6898974,74.4024 C68.8939658,76.1024 69.797812,76.6624 70.1963077,78.0456 C72.216906,74.424 73.9056923,71.5552 76.3786154,70.3864 C83.3016752,67.1144 91.8106838,71.2424 92.6639145,78.7816 C93.0688376,82.3552 91.2370427,87.6928 88.5817436,88.708 C82.9192479,90.8696 75.5221709,82.5528 83.5933162,82.2064 C83.6117949,83.5408 81.3469573,83.4888 81.4586325,84.88 C82.566547,87.064 85.9031453,88.1648 88.2274359,87.2504 C90.1733162,86.4872 91.8870085,81.8856 91.5672479,79.3544 C90.531641,71.1792 79.6887009,68.2968 74.235094,74.2952 C72.9158803,75.748 71.7822564,77.8216 71.4986496,79.5808 C71.2407521,81.1848 72.0714872,82.7488 72.1204957,84.6704 C72.1486154,85.816 71.6408547,87.6152 72.4498974,89.8304 C75.7784615,98.9488 88.4604274,100.272 94,107.1256 C90.5629744,107.2152 88.5664786,104.6808 85.9272479,103.2192 C82.1077949,101.1064 78.4787521,99.1072 74.4439829,96.7472 C71.7436923,95.1664 69.0867863,92.664 64.5386325,94.208 C61.1554359,95.3568 57.9264957,99.468 53.9343077,97.6944 C51.8823761,96.7824 49.1636068,93.8608 52.2937265,92.2344 C56.1003248,90.2552 60.332735,92.1552 63.014547,93.0344 C65.1444103,91.7424 67.2260684,92.9088 69.4370769,92.7152 C69.1309744,91.2704 67.3602393,90.2832 66.1044957,89.2056 C63.0105299,86.548 58.6551966,82.188 53.2313162,83.3776 C50.6571624,83.9416 48.202718,86.5408 45.2501538,87.4632 C41.4114188,88.6632 38.0691966,88.5248 35.4147009,85.2152 C40.0118632,82.6056 46.2070256,79.7736 50.5382564,82.4864 C53.3590598,80.7432 56.0280171,82.3616 58.5644103,82.396 C55.7620855,78.9712 52.8713846,75.6912 50.1727009,72.0944 C45.8511111,75.0464 38.718359,74.3176 36.1739316,70.5448 C40.1733504,70.6736 43.9389744,68.176 47.4250085,68.4424 C44.3736239,62.3104 42.3224957,58.0744 38.6950598,54.2152 C33.780547,48.9856 26.7723248,46.272 20.3449744,48.7848 C13.4652991,51.476 7.72728205,62.3448 14.946,69.8176 C16.5102564,71.4376 21.1363419,74.1656 25.9504274,71.7816 C30.7235385,69.4184 30.396547,59.5392 23.3079829,63.4816 C22.5640171,64.8544 24.9236581,65.2904 23.6550598,66.172 C22.2418462,66.9112 21.5902735,65.272 21.4753846,64.8488 C20.6591111,61.8656 26.602,60.0264 28.650718,61.2656 C34.146906,64.592 29.0130598,72.912 24.3299316,74.0232 C18.7799145,75.3408 13.2411453,71.944 11.2422393,67.3216 C7.85502564,59.4848 11.6190427,51.548 19.4057778,47.4704 C15.5967692,44.7248 12.3324786,49.8288 9.45945299,51.1072 C5.98547009,52.652 2.19413675,52.2096 0.3502906,49.3008 C2.36446154,48.2976 3.5205812,47.1152 5.25757265,46.5736 C8.10649573,45.6848 10.2893846,46.9848 13.0635897,46.8448 C15.5574017,46.72 17.869641,45.0456 20.2919487,46.0232 C18.6441368,41.0952 10.4878291,41.116 12.4312991,32.8184 C16.1463077,33.9384 21.3773675,37.996 19.3615897,43.4744 C22.3270085,47.2728 29.1560684,46.072 33.5555897,48.3672 C36.6608034,49.9872 38.5512479,52.6504 41.4604274,55.3968 C42.1722564,53.976 41.0788034,52.9384 40.8297436,51.5408 C40.2906496,48.5176 41.2282393,46.2128 39.871265,42.5264 C38.728,39.42 34.9302393,35.0832 32.5609573,34.12 C31.2023761,33.5688 29.8494188,34.2256 28.6973162,33.5128 C26.1046838,31.9056 25.874906,27.1272 25.4081197,23.8264 C29.0532308,24.6184 32.4388376,26.6424 33.8263419,30.4232 C34.1509231,31.3088 33.9131111,32.8184 34.3148205,33.6968 C35.6983077,36.7192 39.5579316,38.236 40.6859316,40.7888 C41.7408205,34.3992 42.7370598,27.976 45.1915043,22.436 C39.1208718,16.5248 39.762,4.9456 45.921812,1.3 L45.921812,1.3 L45.921812,1.3 Z M50.7865128,4.7488 C51.1689402,4.4664 50.6716239,4.4032 50.7865128,4.7488 C48.3545641,6.1648 48.4638291,9.1256 45.2782735,10.0864 C44.813094,7.7376 45.8077265,6.2744 45.3200513,3.9112 C43.4480855,5.732 41.6050427,9.2144 41.9023077,12.7512 C42.2590256,16.98 44.6459829,22.0888 48.4067863,21.6592 C52.3965641,21.2056 58.7299145,16.7736 59.8442564,13.9648 C60.4275385,12.492 60.1704444,10.4512 59.7357949,8.4424 C57.9425641,9.0944 56.8611624,11.488 54.8285128,11.1696 C55.6054188,8.8096 57.5400513,5.8984 56.2706496,3.1144 C53.7856752,4.6664 52.9878803,7.2416 50.9030085,9.0352 C50.1381538,7.1648 51.0781538,6.3312 50.7865128,4.7488 L50.7865128,4.7488 L50.7865128,4.7488 Z M32.9329402,33.1056 C32.1616581,28.5312 29.6646325,26.776 26.7819658,25.6528 C26.6815385,30.0528 28.8371111,34.2096 32.9329402,33.1056 L32.9329402,33.1056 L32.9329402,33.1056 Z M18.5718291,41.5064 C18.9325641,37.3504 15.2834359,36.3288 13.219453,34.7864 C13.2049915,38.3792 16.0804274,40.664 18.5718291,41.5064 L18.5718291,41.5064 L18.5718291,41.5064 Z M52.8834359,28.5936 C53.9760855,30.5144 59.1653675,29.9376 60.8388889,28.2112 C60.5673333,26.2056 54.8132479,26.7056 52.8834359,28.5936 L52.8834359,28.5936 L52.8834359,28.5936 Z M2.97264957,49.9 C5.21338462,50.2632 9.78644445,50.4992 10.5022906,47.7728 C8.56765812,46.7496 3.64430769,47.5944 2.97264957,49.9 L2.97264957,49.9 L2.97264957,49.9 Z M44.1534872,56.2864 C48.0749744,53.7896 50.151812,50.1696 49.7766154,45.0648 C45.9081538,47.5952 44.2274017,51.4536 44.1534872,56.2864 L44.1534872,56.2864 L44.1534872,56.2864 Z M54.5553504,60.8632 C57.434,59.0544 59.6988376,56.8736 58.7716923,52.7552 C56.2569915,53.8128 54.4742051,57.4096 54.5553504,60.8632 L54.5553504,60.8632 L54.5553504,60.8632 Z M68.4143248,72.0032 C71.9469573,70.9064 72.3920513,65.828 71.6978974,61.3448 C68.4520855,62.6408 68.5669744,68.0144 68.4143248,72.0032 L68.4143248,72.0032 L68.4143248,72.0032 Z M63.9657949,71.536 C63.168,68.6352 61.8801197,66.5344 59.7751624,65.7672 C60.7055214,68.4512 61.2598803,71.752 63.9657949,71.536 L63.9657949,71.536 L63.9657949,71.536 Z M39.2301368,71.656 C42.112,72.4408 46.9244786,73.5392 49.5958462,71.0016 C47.5953333,68.4488 41.7295727,70.2272 39.2301368,71.656 L39.2301368,71.656 L39.2301368,71.656 Z M38.3295043,85.7448 C40.9277607,87.6736 46.8200342,85.8344 49.2889402,83.7136 C46.5774017,81.1848 40.6449573,83.1896 38.3295043,85.7448 L38.3295043,85.7448 L38.3295043,85.7448 Z M52.7902393,94.2728 C53.9511795,97.6552 60.1704444,96.3576 61.6238291,93.68 C59.2834701,93.4344 54.5593675,91.4856 52.7902393,94.2728 L52.7902393,94.2728 L52.7902393,94.2728 Z" id="rose-right" transform="translate(47.175145, 53.563957) scale(-1, 1) translate(-47.175145, -53.563957) "></path>
            </g>
        </g>
    </g>
</svg>