<?xml version="1.0" encoding="UTF-8" standalone="no"?>
<svg width="34px" height="39px" viewBox="0 0 34 39" version="1.1" xmlns="http://www.w3.org/2000/svg" xmlns:xlink="http://www.w3.org/1999/xlink" xmlns:sketch="http://www.bohemiancoding.com/sketch/ns">
    <!-- Generator: Sketch 3.3.3 (12081) - http://www.bohemiancoding.com/sketch -->
    <title>swirl-left</title>
    <desc>Created with Sketch.</desc>
    <defs></defs>
    <g id="Page-1" stroke="none" stroke-width="1" fill="none" fill-rule="evenodd" sketch:type="MSPage">
        <g id="swirl-left" sketch:type="MSLayerGroup" fill="#FFFFFF">
            <path d="M18.056,4.552 L18.106,4.675 C18.154,4.773 18.221,4.833 18.278,4.923 C18.339,5.017 18.378,5.13 18.426,5.229 L18.714,5.815 C18.968,6.313 19.234,6.81 19.526,7.296 C20.151,8.331 20.874,9.329 21.701,10.272 C21.896,10.481 22.08,10.714 22.299,10.907 C22.428,11.019 22.565,11.11 22.674,11.239 C22.917,11.52 23.145,11.808 23.404,12.081 C23.639,12.311 23.887,12.442 24.146,12.64 C24.824,13.188 25.525,13.724 26.263,14.22 C27.542,15.081 28.917,15.835 30.357,16.497 C31.201,16.88 32.064,17.243 32.949,17.558 C33.01,17.581 33.15,17.655 33.218,17.657 C32.531,17.665 31.811,17.601 31.114,17.538 C29.835,17.427 28.552,17.241 27.271,16.966 C26.489,16.802 25.713,16.595 24.936,16.364 C24.564,16.249 24.167,16.146 23.799,15.989 L22.731,15.509 C22.453,15.396 22.143,15.284 21.876,15.138 C21.745,15.067 21.62,14.968 21.484,14.911 C21.165,14.774 20.851,14.694 20.531,14.558 C20.248,14.429 19.956,14.265 19.675,14.112 C18.973,13.7 18.272,13.267 17.602,12.776 C16.383,11.898 15.22,10.888 14.177,9.729 C13.565,9.065 12.984,8.345 12.485,7.562 C11.665,6.247 11.207,4.679 11.245,3.3 C11.256,2.696 11.421,2.188 11.455,1.597 C11.492,1.044 11.584,0.784 11.953,0.686 C12.145,0.638 12.302,0.571 12.469,0.44 C12.685,0.27 12.893,0.108 13.151,0.058 C14.691,-0.204 16.18,1.483 17.196,3.028 C17.358,3.308 17.349,3.608 17.525,3.866 C17.641,4.032 17.828,4.085 17.938,4.255 C18,4.351 18.025,4.45 18.056,4.552" id="Fill-1" sketch:type="MSShapeGroup"></path>
            <path d="M12.747,32.056 L12.804,31.913 C12.846,31.794 12.846,31.69 12.875,31.569 C12.906,31.444 12.969,31.319 13.018,31.2 C13.117,30.966 13.217,30.735 13.333,30.507 C13.615,29.921 13.951,29.358 14.309,28.815 C15.075,27.659 16.011,26.626 17.031,25.747 C17.268,25.55 17.521,25.364 17.75,25.159 C17.887,25.042 18.006,24.917 18.157,24.823 C18.488,24.62 18.835,24.47 19.172,24.296 C19.473,24.151 19.665,23.938 19.954,23.79 C20.713,23.37 21.513,23.063 22.302,22.794 C23.673,22.327 25.053,22.028 26.423,21.858 C27.225,21.757 28.023,21.696 28.816,21.667 C28.871,21.665 29.004,21.681 29.056,21.657 C28.535,21.917 27.977,22.138 27.459,22.398 C26.512,22.874 25.603,23.399 24.755,23.981 C24.237,24.331 23.749,24.716 23.284,25.106 C23.061,25.3 22.851,25.524 22.623,25.704 C22.405,25.892 22.174,26.042 21.985,26.259 L21.541,26.753 C21.467,26.827 21.37,26.884 21.307,26.966 C21.163,27.163 21.09,27.396 20.963,27.595 C20.857,27.78 20.735,27.97 20.619,28.144 C20.341,28.606 20.082,29.063 19.877,29.544 C19.49,30.399 19.245,31.288 19.076,32.177 C18.984,32.696 18.928,33.22 18.85,33.743 C18.705,34.608 18.396,35.472 17.872,36.255 C17.642,36.597 17.331,36.87 17.135,37.253 C16.954,37.606 16.819,37.774 16.434,37.782 C16.235,37.784 16.067,37.806 15.874,37.876 C15.626,37.968 15.385,38.062 15.124,38.062 C13.585,38.099 12.372,36.159 12.435,34.02 C12.447,33.659 12.651,33.388 12.669,33.04 C12.685,32.813 12.588,32.636 12.622,32.403 C12.637,32.272 12.698,32.167 12.747,32.056" id="Fill-2" sketch:type="MSShapeGroup"></path>
            <path d="M6.003,11.933 C6.022,11.954 6.042,11.974 6.064,11.993 C6.12,12.038 6.18,12.046 6.243,12.077 C6.308,12.108 6.363,12.165 6.419,12.212 L6.747,12.489 L7.606,13.214 C8.23,13.729 8.886,14.239 9.568,14.737 C9.723,14.851 9.876,14.981 10.048,15.071 C10.149,15.126 10.251,15.161 10.339,15.237 C10.532,15.401 10.705,15.591 10.902,15.755 C11.074,15.897 11.259,15.931 11.444,16.046 L12.92,17.007 L15.548,18.632 L17.109,19.573 C17.145,19.597 17.223,19.667 17.268,19.669 C16.814,19.675 16.354,19.62 15.903,19.595 L13.421,19.431 L11.905,19.304 C11.661,19.28 11.398,19.278 11.157,19.227 C10.918,19.175 10.695,19.108 10.449,19.079 C10.262,19.056 10.055,19.044 9.874,18.999 C9.784,18.977 9.7,18.927 9.607,18.921 C9.39,18.903 9.173,18.942 8.955,18.929 C8.759,18.919 8.554,18.884 8.36,18.852 C7.863,18.771 7.364,18.677 6.863,18.573 C5.956,18.382 5.042,18.149 4.125,17.852 C3.594,17.679 3.045,17.499 2.535,17.231 C1.681,16.79 0.956,16.046 0.607,15.163 C0.455,14.774 0.431,14.368 0.286,13.987 C0.149,13.634 0.141,13.425 0.4,13.146 C0.535,12.999 0.637,12.864 0.728,12.686 C0.846,12.456 0.961,12.237 1.147,12.052 C2.276,10.983 3.91,10.981 5.016,11.401 C5.211,11.476 5.26,11.7 5.457,11.763 C5.583,11.806 5.727,11.743 5.848,11.796 C5.915,11.825 5.958,11.88 6.003,11.933" id="Fill-3" sketch:type="MSShapeGroup"></path>
        </g>
    </g>
</svg>